<?xml version="1.0" encoding="UTF-8" standalone="no"?>
<svg
   xmlns:dc="http://purl.org/dc/elements/1.1/"
   xmlns:cc="http://creativecommons.org/ns#"
   xmlns:rdf="http://www.w3.org/1999/02/22-rdf-syntax-ns#"
   xmlns:svg="http://www.w3.org/2000/svg"
   xmlns="http://www.w3.org/2000/svg"
   version="1.1"
   id="svg2"
   viewBox="0 0 511.99998 511.99998"
   height="512"
   width="512">
  <defs
     id="defs4" />
  <metadata
     id="metadata7">
    <rdf:RDF>
      <cc:Work
         rdf:about="">
        <dc:format>image/svg+xml</dc:format>
        <dc:type
           rdf:resource="http://purl.org/dc/dcmitype/StillImage" />
        <dc:title></dc:title>
      </cc:Work>
    </rdf:RDF>
  </metadata>
  <g
     transform="translate(0,-540.36231)"
     id="layer1">
    <ellipse
       ry="254.61844"
       rx="254.61845"
       cy="796.36224"
       cx="255.99997"
       id="path3340"
       style="fill:#ffffff;fill-rule:evenodd;stroke:none;stroke-width:2.76305175px;stroke-linecap:butt;stroke-linejoin:miter;stroke-opacity:1;fill-opacity:1" />
    <g
       transform="matrix(1.5907448,0,0,1.5907448,-151.23065,-470.44692)"
       id="text4161"
       style="font-style:normal;font-weight:normal;font-size:40px;line-height:125%;font-family:sans-serif;letter-spacing:0px;word-spacing:0px;fill:#000000;fill-opacity:1;stroke:none;stroke-width:1px;stroke-linecap:butt;stroke-linejoin:miter;stroke-opacity:1">
      <path
         id="path4166"
         style="font-size:124.99998474px"
         d="m 115.7412,737.79908 12.3291,0 0,80.74951 44.37256,0 0,10.37597 -56.70166,0 0,-91.12548 z" />
      <path
         id="path4168"
         style="font-size:124.99998474px"
         d="m 209.12498,768.43873 q -9.0332,0 -14.28222,7.08008 -5.24903,7.01904 -5.24903,19.2871 0,12.26807 5.18799,19.34814 5.24902,7.01905 14.34326,7.01905 8.97217,0 14.22119,-7.08008 5.24902,-7.08008 5.24902,-19.28711 0,-12.14599 -5.24902,-19.22607 -5.24902,-7.14111 -14.22119,-7.14111 z m 0,-9.52149 q 14.64844,0 23.01025,9.52149 8.36182,9.52148 8.36182,26.36718 0,16.78467 -8.36182,26.36719 -8.36181,9.52148 -23.01025,9.52148 -14.70947,0 -23.07129,-9.52148 -8.30078,-9.58252 -8.30078,-26.36719 0,-16.8457 8.30078,-26.36718 8.36182,-9.52149 23.07129,-9.52149 z" />
      <path
         id="path4170"
         style="font-size:124.99998474px"
         d="m 304.03464,793.95142 q 0,-12.20703 -5.06592,-18.9209 -5.00488,-6.71386 -14.09912,-6.71386 -9.0332,0 -14.09912,6.71386 -5.00488,6.71387 -5.00488,18.9209 0,12.14599 5.00488,18.85986 5.06592,6.71387 14.09912,6.71387 9.09424,0 14.09912,-6.71387 5.06592,-6.71387 5.06592,-18.85986 z m 11.23047,26.48925 q 0,17.45606 -7.75147,25.93994 -7.75146,8.54492 -23.74267,8.54492 -5.92041,0 -11.16943,-0.91552 -5.24903,-0.8545 -10.19287,-2.68555 l 0,-10.92529 q 4.94384,2.68555 9.76562,3.96728 4.82178,1.28174 9.82666,1.28174 11.04736,0 16.54052,-5.79834 5.49317,-5.7373 5.49317,-17.39502 l 0,-5.55419 q -3.47901,6.04248 -8.91113,9.0332 -5.43213,2.99072 -13.00049,2.99072 -12.57324,0 -20.26367,-9.58252 -7.69043,-9.58252 -7.69043,-25.39062 0,-15.86914 7.69043,-25.45166 7.69043,-9.58252 20.26367,-9.58252 7.56836,0 13.00049,2.99073 5.43212,2.99072 8.91113,9.0332 l 0,-10.37598 11.23047,0 0,59.87548 z" />
      <path
         id="path4172"
         style="font-size:124.99998474px"
         d="m 364.88668,768.43873 q -9.03321,0 -14.28223,7.08008 -5.24902,7.01904 -5.24902,19.2871 0,12.26807 5.18799,19.34814 5.24902,7.01905 14.34326,7.01905 8.97216,0 14.22119,-7.08008 5.24902,-7.08008 5.24902,-19.28711 0,-12.14599 -5.24902,-19.22607 -5.24903,-7.14111 -14.22119,-7.14111 z m 0,-9.52149 q 14.64843,0 23.01025,9.52149 8.36181,9.52148 8.36181,26.36718 0,16.78467 -8.36181,26.36719 -8.36182,9.52148 -23.01025,9.52148 -14.70947,0 -23.07129,-9.52148 -8.30078,-9.58252 -8.30078,-26.36719 0,-16.8457 8.30078,-26.36718 8.36182,-9.52149 23.07129,-9.52149 z" />
    </g>
  </g>
</svg>
